<?xml version="1.0" encoding="UTF-8" standalone="no"?>
<!-- Created with Inkscape (http://www.inkscape.org/) -->

<svg
   xmlns:dc="http://purl.org/dc/elements/1.1/"
   xmlns:cc="http://creativecommons.org/ns#"
   xmlns:rdf="http://www.w3.org/1999/02/22-rdf-syntax-ns#"
   xmlns:svg="http://www.w3.org/2000/svg"
   xmlns="http://www.w3.org/2000/svg"
   xmlns:sodipodi="http://sodipodi.sourceforge.net/DTD/sodipodi-0.dtd"
   xmlns:inkscape="http://www.inkscape.org/namespaces/inkscape"
   width="52.784374mm"
   height="55.747707mm"
   viewBox="0 0 52.784374 55.747707"
   version="1.1"
   id="svg8"
   sodipodi:docname="Vertical_White.svg"
   inkscape:version="0.92.1 r15371">
  <defs
     id="defs2" />
  <sodipodi:namedview
     id="base"
     pagecolor="#7e7e7e"
     bordercolor="#666666"
     borderopacity="1.0"
     inkscape:pageopacity="0"
     inkscape:pageshadow="2"
     inkscape:zoom="1.4"
     inkscape:cx="83.954659"
     inkscape:cy="173.49082"
     inkscape:document-units="mm"
     inkscape:current-layer="layer1"
     showgrid="false"
     inkscape:window-width="1920"
     inkscape:window-height="1017"
     inkscape:window-x="-8"
     inkscape:window-y="-8"
     inkscape:window-maximized="1"
     fit-margin-top="0"
     fit-margin-left="0"
     fit-margin-right="0"
     fit-margin-bottom="0" />
  <metadata
     id="metadata5">
    <rdf:RDF>
      <cc:Work
         rdf:about="">
        <dc:format>image/svg+xml</dc:format>
        <dc:type
           rdf:resource="http://purl.org/dc/dcmitype/StillImage" />
        <dc:title></dc:title>
        <cc:license
           rdf:resource="http://creativecommons.org/licenses/by/4.0/" />
      </cc:Work>
      <cc:License
         rdf:about="http://creativecommons.org/licenses/by/4.0/">
        <cc:permits
           rdf:resource="http://creativecommons.org/ns#Reproduction" />
        <cc:permits
           rdf:resource="http://creativecommons.org/ns#Distribution" />
        <cc:requires
           rdf:resource="http://creativecommons.org/ns#Notice" />
        <cc:requires
           rdf:resource="http://creativecommons.org/ns#Attribution" />
        <cc:permits
           rdf:resource="http://creativecommons.org/ns#DerivativeWorks" />
      </cc:License>
    </rdf:RDF>
  </metadata>
  <g
     inkscape:label="Layer 1"
     inkscape:groupmode="layer"
     id="layer1"
     transform="translate(-22.74472,4.5286157)">
    <g
       transform="matrix(0.26458333,0,0,0.26458333,118.44451,-4.5286157)"
       id="g3088"
       style="fill:#ffffff">
      <g
         id="g3060"
         style="fill:#ffffff">
        <g
           id="g3058"
           style="fill:#ffffff">
          <path
             style="fill:#ffffff"
             inkscape:connector-curvature="0"
             d="m -330.6,186.8 v 23 h -6.6 l -0.9,-5.1 c -2.4,2.6 -6.8,5.9 -12.9,5.9 -6.2,0 -10.7,-3.4 -10.7,-9.8 v -3.5 c 0,-5.4 3.7,-8.5 10,-8.5 h 12.7 v -2.1 c -0.1,-3.9 -1.4,-4.8 -6.2,-4.8 -3.1,0 -8.8,0.3 -14.1,0.7 l -0.8,-5.9 c 4.8,-0.9 12.4,-1.7 16.9,-1.7 8.2,0 12.6,2.8 12.6,11.8 z m -22.8,12.8 c 0,2.9 1.4,4.1 4.4,4.1 2.6,0 6.4,-1.1 9.9,-4 v -5.2 h -10.8 c -2.8,0.1 -3.6,1.5 -3.6,3.8 v 1.3 z"
             id="path3044" />
          <path
             style="fill:#ffffff"
             inkscape:connector-curvature="0"
             d="m -297.9,176.2 -0.6,5.8 c -4.3,-0.1 -8.6,-0.3 -12.9,-0.3 -5.7,0 -7.2,0.1 -7.2,2.9 0,2.7 1.4,2.8 4.6,3.7 l 9.1,2.5 c 5.6,1.6 8.1,3.8 8.1,9.7 0,8.3 -4.6,10 -15.1,10 -2.3,0 -8,-0.1 -14.1,-1.1 l 0.6,-5.9 c 2.7,0.2 7.2,0.3 11.5,0.3 7.2,0 9.1,-0.6 9.1,-3.2 0,-2.6 -1.8,-2.8 -5,-3.7 l -8.9,-2.4 c -6,-1.7 -7.9,-4.6 -7.9,-9.9 0,-7.5 3.9,-9.6 13.8,-9.6 4.5,0.1 10.7,0.5 14.9,1.2 z"
             id="path3046" />
          <path
             style="fill:#ffffff"
             inkscape:connector-curvature="0"
             d="m -281.5,199.2 c 0,3 1,3.9 4.1,3.9 h 4.6 l 0.9,6.2 c -2.3,0.8 -6.6,1.2 -8.7,1.2 -5.9,0 -9.2,-3.6 -9.2,-9.9 l -0.1,-18.6 h -6.1 v -5.7 l 6.1,-0.3 v -9.7 h 8.3 v 9.7 h 9.9 v 6.1 h -9.9 v 17.1 z"
             id="path3048" />
          <path
             style="fill:#ffffff"
             inkscape:connector-curvature="0"
             d="m -246.6,182.9 h -2.4 c -3.2,0 -6.3,1.1 -11.2,3 v 23.9 h -8.4 V 176 h 6.6 l 0.8,5 c 4.6,-3.8 9.5,-5.9 13.9,-5.9 h 1.7 z"
             id="path3050" />
          <path
             style="fill:#ffffff"
             inkscape:connector-curvature="0"
             d="m -212.2,192.9 c 0,13 -4.5,17.8 -16.6,17.8 -12.2,0 -16.8,-4.8 -16.8,-17.8 0,-13 4.6,-17.9 16.8,-17.9 12.1,0 16.6,4.9 16.6,17.9 z m -24.7,0 c 0,8.7 1.8,11.1 8,11.1 6.1,0 7.9,-2.4 7.9,-11.1 0,-8.8 -1.9,-11.2 -7.9,-11.2 -6.2,0 -8,2.4 -8,11.2 z"
             id="path3052" />
          <path
             style="fill:#ffffff"
             inkscape:connector-curvature="0"
             d="m -201.5,161.3 c 1.7,0 2.4,0.9 2.4,2.4 v 3.8 c 0,1.6 -0.8,2.4 -2.4,2.4 h -3.9 c -1.6,0 -2.4,-0.8 -2.4,-2.4 v -3.8 c 0,-1.5 0.8,-2.4 2.4,-2.4 z m -6.1,48.5 V 176 h 8.3 v 33.8 z"
             id="path3054" />
          <path
             style="fill:#ffffff"
             inkscape:connector-curvature="0"
             d="m -162.2,209.8 h -6.6 l -0.7,-4.6 c -3,2.8 -7.5,5.5 -13.1,5.5 -8.6,0 -11.9,-6.5 -11.9,-17.9 0,-13.5 4.4,-17.7 13,-17.7 4,0 7.9,0.9 11.2,3 -0.3,-2.2 -0.3,-4.4 -0.3,-6.8 v -9.7 h 8.4 z m -17.3,-6.3 c 3.4,0 5.2,-1 8.9,-3.5 v -16.8 c -3,-0.7 -5.4,-1.4 -8.4,-1.4 -5,0 -6.8,1.7 -6.8,10.8 0,8.9 1.8,10.9 6.3,10.9 z"
             id="path3056" />
        </g>
      </g>
      <g
         id="g3086"
         style="fill:#ffffff">
        <g
           id="g3064"
           style="fill:#ffffff">
          <path
             style="fill:#ffffff"
             inkscape:connector-curvature="0"
             d="m -262,81 c -0.9,0 -1.8,-0.3 -2.4,-1 l -25.2,-24 v 36.8 h 55.3 V 56 l -25.2,24 c -0.7,0.7 -1.6,1 -2.5,1 z"
             id="path3062" />
        </g>
        <g
           id="g3068"
           style="fill:#ffffff">
          <path
             style="fill:#ffffff"
             inkscape:connector-curvature="0"
             d="m -189,73 c -11.2,0 -25.4,-7.6 -38.3,-18.4 V 91.5 C -214.3,80.6 -200.1,73 -189,73 Z"
             id="path3066" />
        </g>
        <g
           id="g3072"
           style="fill:#ffffff">
          <polygon
             style="fill:#ffffff"
             points="-262,72.6 -240.6,52.2 -283.3,52.2 "
             id="polygon3070" />
        </g>
        <g
           id="g3076"
           style="fill:#ffffff">
          <path
             style="fill:#ffffff"
             inkscape:connector-curvature="0"
             d="m -262,0 c 0,13.2 -10.6,30.6 -24.6,45.1 h 49.3 C -251.4,30.6 -262,13.2 -262,0 Z"
             id="path3074" />
        </g>
        <g
           id="g3080"
           style="fill:#ffffff">
          <path
             style="fill:#ffffff"
             inkscape:connector-curvature="0"
             d="m -262,146 c 0,-13.5 11.1,-31.4 25.6,-46.1 h -51.1 c 14.5,14.7 25.5,32.6 25.5,46.1 z"
             id="path3078" />
        </g>
        <g
           id="g3084"
           style="fill:#ffffff">
          <path
             style="fill:#ffffff"
             inkscape:connector-curvature="0"
             d="m -335,73 c 11.2,0 25.4,7.6 38.3,18.4 V 54.6 C -309.6,65.4 -323.8,73 -335,73 Z"
             id="path3082" />
        </g>
      </g>
    </g>
  </g>
</svg>
